<svg width="28" height="28" viewBox="0 0 28 28" fill="none" xmlns="http://www.w3.org/2000/svg">
<path d="M20.5625 10.5005H19.25V7.94655C19.25 5.06452 16.9531 2.66921 14.0711 2.62546C11.1508 2.58717 8.75 4.96608 8.75 7.87546V10.5005H7.4375C6.23438 10.5005 5.25 11.4848 5.25 12.688V23.188C5.25 24.3911 6.23438 25.3755 7.4375 25.3755H20.5625C21.7656 25.3755 22.75 24.3911 22.75 23.188V12.688C22.75 11.4848 21.7656 10.5005 20.5625 10.5005ZM14.7656 17.3255V21.088C14.7656 21.4981 14.4484 21.8536 14.0383 21.8755C13.6008 21.8973 13.2344 21.5473 13.2344 21.1098V17.3255C12.6055 17.0192 12.1898 16.352 12.2555 15.5919C12.332 14.7442 13.0266 14.0661 13.8742 14.0059C14.8969 13.9348 15.75 14.7442 15.75 15.7505C15.75 16.445 15.3508 17.0411 14.7656 17.3255ZM17.7188 10.5005H10.2812V7.87546C10.2812 6.88561 10.6695 5.95592 11.375 5.25046C12.0805 4.54499 13.0102 4.15671 14 4.15671C14.9898 4.15671 15.9195 4.54499 16.625 5.25046C17.3305 5.95592 17.7188 6.88561 17.7188 7.87546V10.5005Z" fill="#4A493B"/>
</svg>
