<svg width="67" height="51" viewBox="0 0 67 51" fill="none" xmlns="http://www.w3.org/2000/svg">
<path d="M22.44 0.551989C24.36 0.551989 25.32 1.60799 25.32 3.71998C25.32 5.25599 23.88 7.84799 21 11.496C18.12 14.952 16.68 18.12 16.68 21C16.68 23.88 18.12 26.76 21 29.64C24.072 32.52 25.608 35.592 25.608 38.856C25.608 42.12 24.36 44.904 21.864 47.208C19.368 49.512 16.008 50.664 11.784 50.664C4.488 50.664 0.840001 46.536 0.840001 38.28C0.840001 29.832 3.528 21.48 8.904 13.224C14.28 4.77599 18.792 0.551989 22.44 0.551989ZM63.048 0.551989C64.968 0.551989 65.928 1.60799 65.928 3.71998C65.928 5.25599 64.488 7.84799 61.608 11.496C58.728 14.952 57.288 18.12 57.288 21C57.288 23.88 58.728 26.76 61.608 29.64C64.68 32.52 66.216 35.592 66.216 38.856C66.216 42.12 64.968 44.904 62.472 47.208C59.976 49.512 56.616 50.664 52.392 50.664C45.096 50.664 41.448 46.536 41.448 38.28C41.448 29.832 44.136 21.48 49.512 13.224C54.888 4.77599 59.4 0.551989 63.048 0.551989Z" fill="#624D0F"/>
</svg>
