<svg width="100" height="100" viewBox="0 0 100 100" fill="none" xmlns="http://www.w3.org/2000/svg">
<path fill-rule="evenodd" clip-rule="evenodd" d="M0 50L50 0L100 50L50 100L0 50ZM69.9804 39.3857L59.4726 50.0888C59.3945 50.1669 59.3945 50.2841 59.4726 50.3622L66.8261 58.1943C67.3242 58.6923 67.3242 59.4931 66.8261 59.9911C66.582 60.2353 66.25 60.3622 65.9277 60.3622C65.6054 60.3622 65.2734 60.2353 65.0293 59.9911L57.705 52.1884C57.6269 52.1103 57.5 52.1103 57.4218 52.1884L55.6347 54.0048C54.1406 55.5185 52.1582 56.3583 50.0293 56.3681C47.8711 56.3779 45.8203 55.4697 44.3066 53.9365L42.5879 52.1884C42.5097 52.1103 42.3828 52.1103 42.3047 52.1884L34.9804 59.9911C34.7363 60.2353 34.4043 60.3622 34.082 60.3622C33.7597 60.3622 33.4277 60.2353 33.1836 59.9911C32.6855 59.4931 32.6855 58.6923 33.1836 58.1943L40.5371 50.3622C40.6054 50.2841 40.6054 50.1669 40.5371 50.0888L30.0195 39.3857C29.8925 39.2587 29.6875 39.3466 29.6875 39.5224V60.9384C29.6875 62.6572 31.0937 64.0634 32.8125 64.0634H67.1875C68.9062 64.0634 70.3125 62.6572 70.3125 60.9384V39.5224C70.3125 39.3466 70.0976 39.2685 69.9804 39.3857ZM53.8187 52.2167C52.8031 53.2519 51.4457 53.8183 50.0004 53.8183C48.5551 53.8183 47.1977 53.2421 46.1918 52.2167L30.8695 36.621C31.3969 36.1914 32.0707 35.9375 32.8031 35.9375H67.2074C67.9398 35.9375 68.6039 36.1914 69.141 36.621L53.8187 52.2167Z" fill="#4A493B"/>
</svg>
