<svg width="450" height="450" viewBox="0 0 450 450" fill="none" xmlns="http://www.w3.org/2000/svg">
<path d="M389.5 225.5C389.5 360.81 356 442 215.445 442C116.981 442 61 344.31 61 209C61 73.6902 140.036 8 238.5 8C336.964 8 389.5 90.1902 389.5 225.5Z" fill="#9A9A00"/>
<path fill-rule="evenodd" clip-rule="evenodd" d="M134.032 413.649C134.831 413.6 135.491 413.548 136 413.5C136 413.5 161.198 418.014 177.5 418C178.349 417.999 179.187 417.999 180.014 417.999C202.707 417.992 217.459 417.987 238.5 408C264.196 395.803 274.529 384.5 279.5 377C283.145 371.5 290.5 359 294.5 343.501C298.045 329.764 297.663 77.2303 297.53 19.9766C357.812 47.3648 389.5 120.412 389.5 225.5C389.5 360.81 356 442 215.445 442C183.757 442 156.47 431.882 134.032 413.649Z" fill="#4A493B"/>
<path d="M262 226C262 273 237.043 310 204.362 310C166.928 301.5 139 299.454 139 226C139 152.547 144.696 104 225.754 104C253.681 104 262 179 262 226Z" fill="#624D0F"/>
<path d="M220.907 374.085H223.722C234.669 374.085 244.053 370.801 251.872 364.233C260.005 357.977 264.071 349.376 264.071 338.428C264.071 330.922 262.82 324.666 260.318 319.661C257.815 314.657 254.687 310.747 250.934 307.932C247.181 304.804 243.271 302.771 239.205 301.833C235.451 300.582 232.167 299.956 229.352 299.956C217.779 300.582 207.77 304.179 199.325 310.747C191.193 317.628 187.126 327.481 187.126 340.305C187.126 349.376 190.098 357.195 196.041 363.764C202.296 370.332 210.585 373.773 220.907 374.085ZM222.784 405.051C221.533 405.051 220.281 405.051 219.03 405.051C218.092 405.364 217.154 405.52 216.215 405.52C206.519 405.52 197.605 403.8 189.472 400.359C181.653 396.919 174.771 392.227 168.829 386.284C163.199 380.654 158.82 373.929 155.692 366.11C152.564 358.29 151 350.158 151 341.713C151 332.955 152.408 324.822 155.223 317.316C158.038 310.122 161.791 303.553 166.483 297.61C171.174 291.355 176.492 286.037 182.435 281.658C188.69 277.28 195.102 273.839 201.671 271.337C199.481 267.271 197.761 262.892 196.51 258.2C195.259 253.508 194.633 248.504 194.633 243.186C194.633 240.997 194.79 238.964 195.102 237.087C195.415 234.898 195.884 232.552 196.51 230.049C186.188 225.983 177.43 219.571 170.236 210.813C163.042 202.056 159.445 191.265 159.445 178.441C159.445 170.621 161.009 162.332 164.137 153.574C167.577 144.504 172.738 136.371 179.62 129.177C183.686 125.111 187.283 120.732 190.411 116.041C193.538 111.349 194.946 103.686 194.633 93.0511V83.1985C194.633 79.1323 196.197 76.1609 199.325 74.2842C202.453 72.0947 206.206 71 210.585 71C218.717 71 224.191 73.1895 227.006 77.5684C229.821 81.6346 231.229 87.2646 231.229 94.4586C231.229 101.653 230.447 108.065 228.883 113.695C236.39 114.633 243.427 117.135 249.996 121.201C256.877 124.955 262.82 129.647 267.824 135.277C272.829 140.594 276.739 146.537 279.554 153.105C282.682 159.674 284.245 166.242 284.245 172.81C284.245 181.568 282.682 189.544 279.554 196.738C276.426 203.932 272.36 210.188 267.355 215.505C262.351 220.51 256.721 224.732 250.465 228.173C244.209 231.301 237.954 233.334 231.698 234.272C231.385 235.836 231.072 237.4 230.76 238.964C230.76 240.215 230.76 241.622 230.76 243.186C230.76 247.565 231.385 251.788 232.636 255.854C233.887 259.607 235.608 263.204 237.797 266.645C244.678 267.583 251.716 269.616 258.91 272.744C266.104 275.872 272.672 280.251 278.615 285.881C284.871 291.198 289.876 297.767 293.629 305.586C297.695 313.406 299.728 322.476 299.728 332.798C299.728 344.997 297.851 355.475 294.098 364.233C290.345 372.991 285.027 380.185 278.146 385.815C271.265 391.445 263.133 395.824 253.749 398.952C244.366 402.079 234.044 404.112 222.784 405.051ZM213.869 142.314L203.078 154.513C200.576 157.641 198.856 161.081 197.917 164.835C196.979 168.588 196.51 172.967 196.51 177.971C196.51 184.227 199.012 189.857 204.017 194.862C209.021 199.866 216.215 202.368 225.599 202.368C227.788 202.368 230.134 201.743 232.636 200.492C235.139 198.928 237.484 197.051 239.674 194.862C241.863 192.359 243.74 189.701 245.304 186.886C246.868 183.758 247.65 180.474 247.65 177.033C247.65 167.024 244.678 159.361 238.736 154.044C233.105 148.726 224.817 144.816 213.869 142.314Z" fill="white"/>
</svg>
