<svg width="329" height="434" viewBox="0 0 329 434" fill="none" xmlns="http://www.w3.org/2000/svg">
<path d="M328.5 217.5C328.5 352.81 295 434 154.445 434C55.9807 434 0 336.31 0 201C0 65.6902 79.0355 0 177.5 0C275.964 0 328.5 82.1902 328.5 217.5Z" fill="#9A9A00"/>
<path fill-rule="evenodd" clip-rule="evenodd" d="M73.0317 405.649C73.8313 405.599 74.4908 405.548 75 405.499C75 405.499 100.198 410.014 116.5 409.999C117.349 409.999 118.187 409.998 119.014 409.998C141.707 409.991 156.459 409.987 177.5 399.999C203.196 387.802 213.786 372.709 229.5 348.999C230.462 347.548 231.061 346.784 231.596 346.102C232.675 344.725 233.491 343.684 236.5 337.999C237.677 335.777 236.761 70.8125 236.544 11.9824C296.816 39.3755 328.5 112.42 328.5 217.499C328.5 352.809 295 433.999 154.445 433.999C122.758 433.999 95.4697 423.882 73.0317 405.649Z" fill="#4A493B"/>
<path d="M201 218C201 265 176.043 302 143.362 302C105.928 293.5 78 291.454 78 218C78 144.547 83.696 96 164.754 96C192.681 96 201 171 201 218Z" fill="#624D0F"/>
</svg>
