<svg width="329" height="434" viewBox="0 0 329 434" fill="none" xmlns="http://www.w3.org/2000/svg">
<path d="M328.5 217.5C328.5 352.81 295 434 154.445 434C55.9807 434 0 336.31 0 201C0 65.6902 79.0355 0 177.5 0C275.964 0 328.5 82.1902 328.5 217.5Z" fill="#9A9A00"/>
<path fill-rule="evenodd" clip-rule="evenodd" d="M73.0317 405.649C73.8313 405.6 74.4908 405.548 75 405.5L116.5 410L177.5 400L229.5 349L236.5 337.5V11.9629C296.801 39.3406 328.5 112.395 328.5 217.5C328.5 352.809 295 434 154.445 434C122.757 434 95.4697 423.882 73.0317 405.649Z" fill="#4A493B"/>
<path d="M205 229C205 276 180.043 313 147.362 313C109.927 304.5 82 302.454 82 229C82 155.546 87.696 107 168.754 107C196.681 107 205 182 205 229Z" fill="#624D0F"/>
<path fill-rule="evenodd" clip-rule="evenodd" d="M66.9763 402.227L73.4209 407.023L76.0804 407.476L100.548 411.083C104.089 411.396 107.432 411.695 110.592 411.977C147.222 415.245 159.314 416.324 170.889 412.88C187.098 408.057 210.859 394.059 223.107 382.116C228.786 376.58 235.715 370.202 238.507 367.942C249.586 358.978 250.278 356.724 251.539 325.559C252.101 311.666 253.575 294.204 254.814 286.755C255.145 284.768 255.43 283.139 255.669 281.504C257.143 271.405 256.865 261.051 254.887 164.339L254.157 128.684L263.223 125.352C273.043 121.742 276.726 120.412 276.614 119.618C276.545 119.128 275.031 118.843 272.622 118.352C262.687 116.33 251.153 115.361 232.263 114.964L212.25 114.545L200.575 116.888C194.154 118.176 188.901 119.483 188.901 119.794C188.901 120.648 200.572 122.94 209.58 123.856L217.586 124.669L217.285 148.421C216.987 171.898 216.273 179.861 214.463 179.861C213.364 179.861 208.214 170.672 202.15 157.896C199.761 152.863 197.333 148.25 196.755 147.646C196.175 147.041 193.297 143.747 190.359 140.324C172.621 119.664 157.214 112.523 143.771 118.731C133.677 123.391 110.493 153.271 102.89 171.42C98.4285 182.068 96.5176 217.137 99.4336 234.828C100.125 239.025 101.371 247.237 102.199 253.076C105.247 274.514 129.924 311.134 129.924 311.134L135.638 315.371L142.545 317.322C142.545 317.322 145.134 318.013 151.996 317.14C164.959 315.491 179.48 312.644 182.565 311.148C187.65 308.681 196.549 303.26 204.293 297.91C208.955 294.689 211.266 293.017 212.359 293.606C213.488 294.213 213.321 297.229 213.106 303.437C211.843 339.873 207.68 358.456 196.799 376.221C189.332 388.413 182.779 392.168 151.753 402.041C126.483 407.876 119.909 408.277 100.548 407.124L87.5021 405.541C87.5021 405.541 77.9523 404.11 66.9763 402.227ZM211.024 188.646C202.439 163.065 186.838 139.927 169.28 126.733C165.295 123.738 161.504 121.288 160.855 121.288C159.712 121.288 151.543 127.349 151.543 128.196C151.543 128.427 150.076 130.286 148.283 132.326C143.782 137.447 142.893 140.336 137.599 167.048C135.046 179.934 132.257 193.442 131.402 197.066C124.867 224.785 137.794 278.886 154.624 294.25C169.432 307.769 187.076 303.444 207.715 281.235L216.253 272.048L216.133 263.477C215.74 235.288 212.946 194.374 211.024 188.646Z" fill="white"/>
</svg>
