<svg width="450" height="450" viewBox="0 0 450 450" fill="none" xmlns="http://www.w3.org/2000/svg">
<path d="M389.5 225.5C389.5 360.81 356 442 215.445 442C116.981 442 61 344.31 61 209C61 73.6902 140.036 8 238.5 8C336.964 8 389.5 90.1902 389.5 225.5Z" fill="#9A9A00"/>
<path fill-rule="evenodd" clip-rule="evenodd" d="M134.032 413.649C134.831 413.6 135.491 413.548 136 413.5C136 413.5 161.198 418.014 177.5 418C178.349 417.999 179.187 417.999 180.014 417.999C202.707 417.992 217.459 417.987 238.5 408C264.196 395.803 274.529 384.5 279.5 377C283.145 371.5 290.5 359 294.5 343.501C298.045 329.764 297.663 77.2303 297.53 19.9766C357.812 47.3648 389.5 120.412 389.5 225.5C389.5 360.81 356 442 215.445 442C183.757 442 156.47 431.882 134.032 413.649Z" fill="#4A493B"/>
<path d="M262 226C262 273 237.043 310 204.362 310C166.928 301.5 139 299.454 139 226C139 152.547 144.696 104 225.754 104C253.681 104 262 179 262 226Z" fill="#624D0F"/>
<path d="M211.344 359.297H213.688C222.802 359.297 230.615 356.562 237.125 351.094C243.896 345.885 247.281 338.724 247.281 329.609C247.281 323.359 246.24 318.151 244.156 313.984C242.073 309.818 239.469 306.562 236.344 304.219C233.219 301.615 229.964 299.922 226.578 299.141C223.453 298.099 220.719 297.578 218.375 297.578C208.74 298.099 200.406 301.094 193.375 306.562C186.604 312.292 183.219 320.495 183.219 331.172C183.219 338.724 185.693 345.234 190.641 350.703C195.849 356.172 202.75 359.036 211.344 359.297ZM212.906 385.078C211.865 385.078 210.823 385.078 209.781 385.078C209 385.339 208.219 385.469 207.438 385.469C199.365 385.469 191.943 384.036 185.172 381.172C178.661 378.307 172.932 374.401 167.984 369.453C163.297 364.766 159.651 359.167 157.047 352.656C154.443 346.146 153.141 339.375 153.141 332.344C153.141 325.052 154.312 318.281 156.656 312.031C159 306.042 162.125 300.573 166.031 295.625C169.938 290.417 174.365 285.99 179.312 282.344C184.521 278.698 189.859 275.833 195.328 273.75C193.505 270.365 192.073 266.719 191.031 262.812C189.99 258.906 189.469 254.74 189.469 250.312C189.469 248.49 189.599 246.797 189.859 245.234C190.12 243.411 190.51 241.458 191.031 239.375C182.438 235.99 175.146 230.651 169.156 223.359C163.167 216.068 160.172 207.083 160.172 196.406C160.172 189.896 161.474 182.995 164.078 175.703C166.943 168.151 171.24 161.38 176.969 155.391C180.354 152.005 183.349 148.359 185.953 144.453C188.557 140.547 189.729 134.167 189.469 125.312V117.109C189.469 113.724 190.771 111.25 193.375 109.688C195.979 107.865 199.104 106.953 202.75 106.953C209.521 106.953 214.078 108.776 216.422 112.422C218.766 115.807 219.938 120.495 219.938 126.484C219.938 132.474 219.286 137.812 217.984 142.5C224.234 143.281 230.094 145.365 235.562 148.75C241.292 151.875 246.24 155.781 250.406 160.469C254.573 164.896 257.828 169.844 260.172 175.312C262.776 180.781 264.078 186.25 264.078 191.719C264.078 199.01 262.776 205.651 260.172 211.641C257.568 217.63 254.182 222.839 250.016 227.266C245.849 231.432 241.161 234.948 235.953 237.812C230.745 240.417 225.536 242.109 220.328 242.891C220.068 244.193 219.807 245.495 219.547 246.797C219.547 247.839 219.547 249.01 219.547 250.312C219.547 253.958 220.068 257.474 221.109 260.859C222.151 263.984 223.583 266.979 225.406 269.844C231.135 270.625 236.995 272.318 242.984 274.922C248.974 277.526 254.443 281.172 259.391 285.859C264.599 290.286 268.766 295.755 271.891 302.266C275.276 308.776 276.969 316.328 276.969 324.922C276.969 335.078 275.406 343.802 272.281 351.094C269.156 358.385 264.729 364.375 259 369.062C253.271 373.75 246.5 377.396 238.688 380C230.875 382.604 222.281 384.297 212.906 385.078ZM205.484 166.328L196.5 176.484C194.417 179.089 192.984 181.953 192.203 185.078C191.422 188.203 191.031 191.849 191.031 196.016C191.031 201.224 193.115 205.911 197.281 210.078C201.448 214.245 207.438 216.328 215.25 216.328C217.073 216.328 219.026 215.807 221.109 214.766C223.193 213.464 225.146 211.901 226.969 210.078C228.792 207.995 230.354 205.781 231.656 203.438C232.958 200.833 233.609 198.099 233.609 195.234C233.609 186.901 231.135 180.521 226.188 176.094C221.5 171.667 214.599 168.411 205.484 166.328Z" fill="white"/>
<path d="M362.125 314.766C360.823 321.276 358.219 326.224 354.312 329.609C350.406 332.995 345.719 334.688 340.25 334.688C338.167 334.688 335.693 334.297 332.828 333.516C329.964 332.995 327.229 331.823 324.625 330C322.281 328.438 320.198 326.094 318.375 322.969C316.552 320.104 315.641 316.328 315.641 311.641C315.641 303.307 317.984 297.318 322.672 293.672C327.359 289.766 333.479 287.812 341.031 287.812C348.583 287.812 354.052 290.156 357.438 294.844C360.823 299.531 362.516 304.87 362.516 310.859C362.516 311.38 362.385 312.031 362.125 312.812C362.125 313.594 362.125 314.245 362.125 314.766Z" fill="white"/>
</svg>
